<?xml version="1.0" encoding="utf-8"?>
<!-- Designed by Vexels.com - 2019 All Rights Reserved - https://vexels.com/terms-and-conditions/  -->
<svg version="1.1" id="Capa_1" xmlns="http://www.w3.org/2000/svg" xmlns:xlink="http://www.w3.org/1999/xlink" x="0px" y="0px"
	 viewBox="0 0 1200 1200" enable-background="new 0 0 1200 1200" xml:space="preserve">
<g>
	<g>
		<path fill="#B32424" d="M933.661,428.787c-6.277,4.998-12.631,10.066-18.819,15.122c-0.604,14.131-4.788,29.688-5.751,38.384
			c-7.469,67.437-15.953,134.765-25.082,201.996c-9.347,68.837-19.466,137.569-30.362,206.178
			c-4.873,30.684-9.898,61.345-15.069,91.98c-2.354,13.955-4.036,28.407-6.809,42.406c6.014-4.012,12.047-7.983,18.142-11.825
			c0.39-0.246,0.776-0.411,1.158-0.535c3.499-1.629,6.453-2.198,8.957-1.975c4.973-17.334,6.882-36.427,10.32-53.161
			c5.43-26.42,10.748-52.863,15.95-79.329c10.669-54.269,20.462-108.714,29.914-163.207c17.216-99.248,36.998-201.99,38.787-303.224
			C948.056,417.319,940.794,423.108,933.661,428.787z"/>
		<path fill="#B32424" d="M877.186,477.685c-10.432,9.747-24.984,16.15-39.499,21.934c-4.223,1.683-9.214,2.251-14.394,2.983
			c-0.847,7.362-2.055,15.928-3.019,25.992c-3.641,38.009-7.172,76.029-11.152,114.004c-5.658,53.966-12.36,107.814-18.418,161.73
			c-5.882,52.356-5.219,103.307-14.262,155.126c-4.515,25.872-8.189,51.948-11.306,78.025c-1.136,9.507-1.327,19.59-1.968,29.607
			c9.035-4.423,17.797-9.359,26.393-14.603c1.536-8.317,3.265-16.609,4.927-24.902c0.155-0.775,0.389-1.465,0.665-2.105
			c19.429-95.153,36.245-190.819,50.17-286.938C857.884,651.839,865.821,564.475,877.186,477.685z"/>
	</g>
	<g>
		<path fill="#D14242" d="M354.778,695.951c-11.786-64.292-23.571-128.585-35.355-192.878c-10.977,0.828-21.963,1.576-32.159,1.579
			c-3.673,0-7.238-0.102-10.671-0.326c0.803,20.696,5.846,43.724,7.209,59.011c2.366,26.542,6.661,52.985,10.312,79.374
			c7.329,52.983,14.831,105.943,22.502,158.878c7.665,52.893,18.528,99.398,27.586,152.072
			c4.591,26.695,11.056,53.308,13.783,86.548c1.012,12.335,6.732,25.801,9.556,37.896c0.054,0.232,0.107,0.44,0.161,0.669
			c5.612-0.917,11.732-0.727,16.694-1.106c7.682-0.587,15.376-0.998,23.074-1.329c-13.513-96.823-32.703-193.778-43.194-290.737
			C361.043,755.725,357.888,725.84,354.778,695.951z"/>
		<path fill="#D14242" d="M718.12,502.555l-70.749-1.165c-4.163,58.414-8.26,162.334-12.739,208.152
			c0.221,0.982,0.374,2.01,0.36,3.137c-0.3,25.218-2.655,50.199-7.001,74.823c-7.602,97.914-13.098,195.982-18.415,294.044
			c5.64,0.222,11.28,0.426,16.922,0.601c11.392,0.352,22.767,0.336,34.135,0.018c11.055-112.75,22.11-225.5,33.167-338.25
			c6.011-61.305,12.022-122.611,18.034-183.916C713.099,547.096,714.467,522.824,718.12,502.555z"/>
		<path fill="#D14242" d="M573.786,500.387c-23.371-0.223-45.846-0.335-67.583-0.339c0.134,9.77,0.115,19.561-0.024,29.367
			c3.277,182.629,3.853,365.165,10.204,547.768c15.07,0.641,30.136,1.391,45.2,2.145c2.704-96.76,6.007-187.787,9.781-285.766
			c2.046-53.099,3.657-106.215,4.794-159.341C577.1,590.326,570.28,544.47,573.786,500.387z"/>
		<path fill="#D14242" d="M453.353,549.134c-1.067-16.318-1.798-32.627-1.813-48.852c-3.032,0.027-6.059,0.055-9.064,0.087
			c-9.69,0.104-19.387,0.273-29.09,0.443c-10.526,0.185-21.243,0.367-32.002,0.468c6.194,42.152,4.954,87.41,10.439,128.569
			c6.663,49.999,13.326,106.43,19.989,156.429c12.85,96.425,17.198,192.851,29.01,289.276c13.952-0.082,27.905,0.086,41.851,0.449
			c-0.371-12.012-0.655-24.027-0.984-36.04C471.487,872.542,455.466,718.199,453.353,549.134z"/>
		<path fill="#D14242" d="M797.663,504.468c-8.393,0.184-17.011,0.063-25.46-0.186c-10.369,101.263-20.74,202.526-31.109,303.789
			c-5.544,54.139-11.089,108.277-16.632,162.416c-3.62,35.351-4.455,73.42-13.426,108.609c6.206-0.393,12.522-0.863,18.742-1.656
			c8.455-1.077,16.709-2.785,24.123-6.03c3.127-1.368,6.206-2.827,9.265-4.325c0.641-10.016,0.832-20.099,1.968-29.607
			c3.117-26.078,6.79-52.153,11.306-78.025c9.044-51.819,8.38-102.77,14.262-155.126c6.058-53.916,12.761-107.764,18.418-161.73
			c3.98-37.975,7.511-75.995,11.152-114.004c0.964-10.064,2.172-18.629,3.019-25.992
			C815.366,503.722,806.654,504.271,797.663,504.468z"/>
	</g>
	<g>
		<path fill="#EBE1CC" d="M391.823,629.849c-5.485-41.158-4.245-86.417-10.439-128.573c-1.02-5.178-61.456,4.55-61.961,1.798
			c11.784,64.293,23.57,128.585,35.355,192.877c3.11,29.889,6.265,59.774,9.499,89.65c10.491,96.958,29.68,193.914,43.194,290.737
			c1.952-0.084,3.905-0.193,5.858-0.263c9.161-0.329,18.326-0.466,27.493-0.521c-11.811-96.426-16.16-192.851-29.01-289.276
			C405.149,736.279,398.485,679.848,391.823,629.849z"/>
		<path fill="#EBE1CC" d="M730.676,502.762c-4.337-0.16-8.676-0.312-13.017-0.457c-19.213,193.228-38.177,386.481-56.892,579.759
			c14.496-0.759,28.992-1.518,43.488-2.277c2.509-0.131,5.207-0.333,7.143-1.934c2.36-1.952,2.837-5.324,3.147-8.371
			c19.168-188.273,38.336-376.546,57.505-564.819C758.253,503.873,744.473,503.272,730.676,502.762z"/>
		<path fill="#EBE1CC" d="M506.203,500.048c-18.735-0.003-36.928,0.074-54.662,0.234c0.014,16.225,0.746,32.534,1.813,48.852
			c2.113,169.065,18.134,323.408,28.336,490.829c0.33,12.013,0.614,24.028,0.984,36.04c0.651,0.017,1.302,0.025,1.952,0.042
			c10.59,0.286,21.175,0.687,31.757,1.137c-6.351-182.603-6.927-365.139-10.204-547.768
			C506.318,519.61,506.337,509.819,506.203,500.048z"/>
		<path fill="#EBE1CC" d="M635.917,501.205c-20.71-0.329-41.419-0.62-62.131-0.817c-3.839,48.277,2.773,96.615,2.13,144.926
			c-0.658,49.419-2.649,98.865-4.551,148.249c-3.774,97.979-7.078,189.006-9.781,285.766c15.996,0.801,31.991,1.59,47.992,2.218
			c-5.481-2.452,5.129-87.993,5.58-95.233c3.258-52.267,6.576-104.531,9.999-156.787c2.555-39.016,9.348-77.771,9.838-116.847
			c0.014-1.127-0.138-2.155-0.36-3.137c4.479-45.817,8.576-149.738,12.733-208.152C643.549,501.327,639.733,501.265,635.917,501.205
			z"/>
		<path fill="#EBE1CC" d="M890.405,465.366c-4.42,4.081-8.811,8.2-13.219,12.319c-11.365,86.791-19.302,174.155-31.863,260.852
			c-7.902,54.545-16.573,108.981-26.261,163.239c-4.844,27.131-9.941,54.217-15.323,81.246c-2.591,13.01-5.247,26.007-7.973,38.99
			c-0.765,3.642-3.338,28.722-6.205,30.471c14.331-8.741,28.222-18.297,42.21-27.628c2.773-13.998,4.454-28.45,6.809-42.406
			c16.578-98.257,31.924-198.68,45.431-298.159c9.129-67.231,17.613-134.559,25.082-201.996c0.963-8.695,5.147-24.253,5.75-38.383
			C906.42,450.791,898.365,458.017,890.405,465.366z"/>
	</g>
	<g>
		<path fill="#9E1C1C" d="M960.702,335.568c-0.619,1.389-1.294,2.771-2.064,4.145c-10.256,18.308-37.569,42.706-59.262,43.052
			c-1.719,0.027-3.385-0.085-5.026-0.267c-1.591,0.846-3.217,1.511-4.853,2.09c7.455,15.639-5.163,34.091-21.408,36.535
			c-0.018,0.404-0.005,0.801-0.038,1.21c-0.905,10.941-8.569,20.102-18.274,24.701c-18.066,8.562-46.499,3.326-64.108-4.597
			c-5.03-2.281-9.487-6.321-13.284-10.22c-3.365,10.169-13.938,17.201-23.327,8.75c-0.044-0.04-0.074-0.091-0.119-0.13
			c-0.407,0.506-0.785,1.031-1.221,1.518c-10.608,18.673-35.563,31.277-56.293,22.387c-6.055-2.596-11.256-6.524-15.246-11.475
			c-2.229,4.181-5.145,8.057-8.881,11.4c-13.952,12.484-38.553,15.293-51.937-0.282c-2.703-3.146-5.017-6.147-7.025-9.271
			c-6.547,3.971-15.344,3.626-21.563-1.477c-3.555-2.917-5.746-7.158-6.294-11.66c-1.414,0.328-24.339,1.038-23.928,0.163
			c-0.59,1.259-0.977,2.58-1.161,3.963c-4.598,16.063-18.047,29.214-34.233,33.644c-12.7,3.472-27.458,2.734-39.831-1.662
			c-7.672-2.726-21.891-12.714-24.371-20.111c-18.677,5.45-42.593,4.865-61.137-1.269c-5.973-1.976-35.221-11.007-25.76-21.639
			c-11.799,13.227-30.111,20.602-47.778,19.706c-9.469-0.48-19.013-3.275-26.9-8.632c-2.313-1.571-14.621-15.758-15.57-15.563
			c-11.009,2.618-22.763,1.547-33.51-3.368c-0.909,0.607-1.822,1.203-2.709,1.883c-16.204,12.421-9.836,49.142-2.094,60.902
			c15.103,22.931,60.247,14.439,82.587,12.73c19.145-1.465,38.115-1.264,57.303-1.444c41.61-0.39,83.203-1.24,124.818-1.232
			c21.737,0.004,44.211,0.116,67.582,0.339c66.168,0.631,132.279,1.941,198.419,3.894c21.568,0.637,44.59,1.478,65.485-4.663
			c30.971-9.102,52.945-35.93,77.154-55.709c18.308-14.959,37.298-29.183,54.952-44.925c9.48-8.453,13.195-20.144,10.46-32.924
			C977.821,354.677,970.437,343.6,960.702,335.568z"/>
		<path fill="#9E1C1C" d="M860.001,1010.881c-3.046-0.23-6.809,0.873-11.415,3.765c-30.848,19.367-61.361,42.18-94.683,56.763
			c-13.103,5.734-28.724,6.789-42.87,7.686c-33.883,2.148-67.509,3.786-101.458,2.452c-16.003-0.628-31.998-1.418-47.993-2.218
			c-41.875-2.096-85.78-4.17-128.485-3.642c-19.673,0.244-74.441-8.375-82.527,16.921c-4.773,14.93,8.548,35.628,20.865,43.148
			c15.385,9.393,35.793,8.01,53.125,8.478c23.607,0.638,47.214,1.282,70.821,1.923c44.081,1.197,88.303,3.55,132.398,3.597
			c40.133,0.042,81.853,2.496,120.82-9.015c35.673-10.538,68.944-29.309,96.144-54.713c9.285-8.673,18.049-18.344,22.964-30.061
			C872.65,1044.184,874.711,1011.989,860.001,1010.881z"/>
		<path fill="#FFE8B4" d="M995.675,243.85c-5.012-38.891-47.161-65.595-84.814-54.705c-0.765,0.221-1.495,0.526-2.248,0.776
			c-0.477-8.524-2.635-16.99-6.678-24.93c-5.996-26.54-22.404-49.537-50.019-56.456c-5.528-1.385-11.028-1.899-16.438-1.8
			c-0.331-0.389-0.637-0.806-0.977-1.185c-10.847-12.118-26.471-17.74-41.946-16.652c-15.155-11.305-35.791-12.297-53.064-5.118
			c-2.905,1.207-5.583,2.69-8.152,4.291c-11.87-3.87-24.458-5.123-36.714-2.967c-8.77-20.742-29.198-35.91-52.47-35.07
			c-13.967,0.505-28.664,6.619-39.513,16.395c-1.167-0.833-2.331-1.672-3.562-2.425c-24.016-14.671-55.324-9.72-75.578,8.684
			c3.247-2.987-18.794-13.518-20.671-14.407c-13.48-6.387-24.878-9.356-39.985-5.182c-24.749,6.839-41.715,29.71-43.294,53.369
			c-12.609-2.176-25.876-0.188-37.762,5.989c-15.27,7.936-25.63,23.11-28.668,39.589c-8.631,4.215-16.058,10.529-21.752,18.123
			c-2.092-0.107-4.185-0.215-6.278-0.322c-17.668-0.908-38.974,12.745-44.567,29.625c-1.131,2.124-1.963,4.332-2.647,6.581
			c0.58-1.904-22.778,0.7-24.766,1.282c-46.733,13.689-59.865,75.346-18.969,103.881c4.57,3.19,10.571,5.088,16.762,5.897
			c-1.131,0.091-2.262,0.182-3.385,0.326c-47.034,6.056-59.293,67.385-20.873,93.513c4.005,5.852,9.478,10.884,16.188,14.562
			c1.137,0.623,2.299,1.162,3.461,1.694c10.747,4.915,22.501,5.986,33.51,3.368c0.949-0.195,13.257,13.991,15.57,15.563
			c7.886,5.357,17.431,8.152,26.9,8.632c17.667,0.896,35.979-6.479,47.778-19.706c-9.461,10.633,19.787,19.664,25.76,21.639
			c18.544,6.134,42.461,6.719,61.137,1.269c2.48,7.397,16.699,17.385,24.371,20.111c12.373,4.396,27.13,5.134,39.831,1.662
			c16.186-4.43,29.636-17.581,34.233-33.644c0.184-1.383,0.571-2.704,1.161-3.963c-0.411,0.875,22.515,0.165,23.928-0.163
			c0.549,4.502,2.74,8.744,6.294,11.66c6.219,5.103,15.016,5.448,21.563,1.477c2.008,3.124,4.322,6.125,7.025,9.271
			c13.384,15.574,37.985,12.766,51.937,0.282c3.736-3.343,6.651-7.219,8.881-11.4c3.99,4.951,9.191,8.878,15.246,11.475
			c20.73,8.89,45.685-3.713,56.293-22.387c0.436-0.487,0.814-1.011,1.221-1.518c0.046,0.039,0.075,0.09,0.119,0.13
			c9.389,8.451,19.962,1.419,23.327-8.75c3.797,3.898,8.255,7.939,13.284,10.22c17.609,7.922,46.042,13.158,64.108,4.597
			c9.705-4.599,17.369-13.76,18.274-24.701c0.034-0.409,0.02-0.805,0.038-1.21c16.245-2.444,28.864-20.896,21.408-36.535
			c1.636-0.579,3.262-1.243,4.853-2.09c1.641,0.182,3.307,0.294,5.026,0.267c21.693-0.346,49.005-24.744,59.262-43.052
			c0.769-1.374,1.444-2.757,2.064-4.145c3.753-8.407,4.769-17.102,2.84-26.391C984.923,295.669,998.956,269.309,995.675,243.85z"/>
	</g>
	<g>
		<path fill="#FFC752" d="M381.424,338.664c4.186-10.456,1.149-22.103-7.608-29.143c-6.497-5.223-18.417-10.052-26.824-9.507
			c-9.004,0.584-16.871,6.402-20.398,14.646c-4.83,11.29-0.163,22.674,3.454,33.424c-20.705,4.771-31.122,26.206-25.376,46.111
			c6.074,21.043,29.66,32.45,49.82,23.293c4.87-2.212,9.17-5.543,12.67-9.58c2.345-2.705,4.82-9.08,7.403-10.309
			c1.158-0.551,6.154,0.028,7.621-0.212c2.454-0.401,4.864-1.133,7.136-2.144c4.955-2.206,9.22-5.771,12.376-10.167
			C414.605,367.095,403.724,341.137,381.424,338.664z"/>
		<path fill="#FFC752" d="M671.696,271.476c-1.414-3.256-3.273-6.375-5.548-9.104c-1.391-1.669-6.636-4.759-7.211-6.494
			c-0.358-1.08,1.419-4.9,1.63-6.18c0.431-2.613,0.52-5.242,0.32-7.876c-0.316-4.172-1.792-7.876-2.845-11.844
			c-3.495-13.176-10.042-23.841-24.246-27.326c-26.459-6.492-49.302,17.719-45.096,43.676
			c-23.995-2.509-46.331,21.562-38.887,45.288c6.307,20.103,26.231,30.333,46.394,24.163c1.861-0.569,5.076-2.822,6.865-2.818
			c2.95,0.006,1.701-0.617,4.199,2.655c3.159,4.137,7.486,7.062,12.353,8.842c10.486,3.834,24.016,0.818,33.979-3.542
			C671.577,313.049,679.319,289.031,671.696,271.476z"/>
		<path fill="#FFC752" d="M482.428,201.134c-5.606-3.473-12.756-5.152-19.195-3.171c-3.936,1.21-2.379,1.803-5.804,0.327
			c-3.07-1.324-5.612-4.097-8.869-5.433c-9.91-4.066-24.374-4.775-32.943,2.544c-8.781,7.499-11.378,23.114-10.237,34.146
			c1.089,10.534,7.411,19.76,16.905,24.496c4.776,2.382,10.088,3.543,15.424,3.414c2.213-0.053,4.453-0.334,6.613-0.817
			c1.5-0.337,2.972-0.77,4.416-1.3c1.711-1.501,2.962-1.171,3.755,0.99c5.482,3.12,8.303,6.997,15.072,7.821
			c6.152,0.749,12.243-0.908,17.419-4.228C502.856,248.46,511.869,204.073,482.428,201.134z"/>
		<g>
			<path fill="#FFC752" d="M885.044,258.104c-3.98-3.492-8.683-6.049-13.709-7.672c-5.043-1.628-10.711-0.596-15.485-2.036
				c-3.697-1.115-1.75,0.494-3.292-3.706c-0.792-2.156-1.122-4.529-1.967-6.715c-1.413-3.656-3.179-7.559-5.117-10.976
				c-8.105-14.284-26.591-26.069-42.238-15.846c-25.719,16.803-17.065,62.973,13.929,67.549
				c-7.525,30.055,18.965,75.062,53.584,55.301c14.184-8.096,22.04-17.541,25.548-33.605
				C899.63,285.124,897.368,268.917,885.044,258.104z"/>
		</g>
		<path fill="#FFC752" d="M760.533,169.405c-2.195-4.539-6.182-7.94-10.868-9.707c-2.064-0.778-5.531-0.556-7.368-1.443
			c-2.863-1.383-1.959-1.611-3.179-5.561c-3.816-12.354-12.491-15.22-23.545-18.372c-2.085-0.594-2.608-2.099-5.181-1.841
			c-2.517,0.253-3.507,2.346-5.414,3.514c-4.437,2.716-8.908,4.255-12.652,8.181c-6.712,7.037-9.683,16.943-7.374,26.451
			c2.067,8.513,8.068,16.181,16.42,19.26c4.488,1.655,9.417,1.84,14.042,0.646c6.196-1.599,7.323-4.877,12.173,1.064
			c6.48,7.936,14.175,11.798,24.144,5.706C760.887,191.707,765.297,179.254,760.533,169.405z"/>
		<path fill="#FFC752" d="M707.279,386.292c10.304-10.646,6.84-28.567-5.388-36.151c-13.584-8.425-32.88,1.272-33.066,17.672
			c-0.017,1.467,0.681,3.233,0.513,4.631c-0.426,3.546,0.513,2.203-3.497,3.994c-3.694,1.65-8.009,3.897-8.805,8.334
			c-0.99,5.516,0.314,13.805,3.786,18.266c3.644,4.682,14.065,9.644,19.905,7.198c2.437-1.021,6.893-4.321,8.999-6.098
			c3.389-2.86,4.136-7.37,3.327-11.564C698.388,392.473,703.578,390.117,707.279,386.292z"/>
		<path fill="#FFC752" d="M526.544,353.956c-5.123-2.308-11.035-1.894-15.904,0.826c-2.757,1.54-3.648,3.33-5.983,3.02
			c-1.649-0.219-4.745-3.546-6.521-4.405c-9.738-4.714-22.134-3.72-30.847,2.775c-12.951,9.654-15.573,29.732-6.305,42.769
			c5.522,7.767,14.844,11.893,24.332,11.141c5.354-0.425,10.614-2.383,15.006-5.462c3.516-2.465,6.821-8.991,10.377-10.616
			c1.078-0.493,6.071,0.297,7.533-0.004c2.433-0.501,4.851-1.528,6.875-2.973c3.743-2.673,7.446-6.71,9.369-10.886
			C538.693,370.98,536.438,358.414,526.544,353.956z"/>
		<path fill="#FFC752" d="M554.133,154.437c-2.282-5.536-6.313-7.591-10.44-11.271c-2.548-2.271-1.563-1.392-2.808-5.058
			c-0.536-1.577-0.855-3.146-1.58-4.676c-3.264-6.886-10.226-11.512-17.597-12.944c-15.602-3.031-29.995,8.981-30.016,24.829
			c-0.009,6.749,2.614,13.432,7.68,17.977c2.697,2.419,5.929,4.103,9.426,5.035c2.59,0.69,5.353,0.147,7.835,0.733
			c4.468,1.056,2.242-0.322,4.978,3.749C534.833,192.483,562.979,175.903,554.133,154.437z"/>
		<path fill="#FFC752" d="M304.922,257.4c-5.903-27.388-49.803-15.53-42.198,11.313C270.396,295.786,310.699,284.202,304.922,257.4z
			"/>
		<path fill="#FFC752" d="M347.144,237.188c4.51-6.65,3.654-21.313-4.003-25.34c-8.619-4.533-18.008,1.087-21.718,9.191
			c-3.839,8.387-3.553,17.215,4.322,22.919C334.805,250.522,341.661,244.801,347.144,237.188z"/>
		<path fill="#FFC752" d="M923.037,247.313c-7.828,3.133-14.039,6.94-12.794,16.057c1.003,7.346,6.212,14.967,14.77,12.517
			C940.843,271.355,939.815,240.599,923.037,247.313z"/>
		<path fill="#FFC752" d="M413.317,162.154c0.708-9.523-9.818-16.622-18.508-14.006c-10.94,3.294-11.623,13.478-9.05,22.577
			c2.502,8.849,7.702,17.771,18.821,14.54C414.859,182.279,417.957,171.193,413.317,162.154z"/>
		<path fill="#FFC752" d="M584.931,399.695c-20.079-8.545-34.593,23.334-10.794,29.334
			C592.671,433.702,603.582,407.633,584.931,399.695z"/>
		<path fill="#FFC752" d="M830.87,158.529c-0.684-4.902-5.996-13.979-11.483-14.167c-10.012-0.342-7.911,12.029-6.261,18.358
			c0.959,3.678,2.492,8.417,6.895,8.771C826.253,171.994,831.647,164.134,830.87,158.529z"/>
		<path fill="#FFC752" d="M736.76,284.481c-5.38-4.69-15.989-4.237-20.881,0.963c-5.909,6.281-3.039,16.92,2.804,22.259
			C731.195,319.136,747.573,293.903,736.76,284.481z"/>
		<path fill="#FFC752" d="M788.834,362.776c-11.137,0.148-22.11,10.312-21.947,21.516c0.149,10.179,8.549,20.031,19.321,18.762
			c9.247-1.09,19.296-8.522,20.783-17.997C808.726,374.002,800.441,362.622,788.834,362.776z"/>
		<path fill="#FFC752" d="M610.658,144.691c-3.071-4.466-2.355-8.549-8.83-10.39c-5.868-1.668-8.435,1.175-12.583,4.245
			c-7.278,5.386-15.879,15.693-12.181,25.772C585.262,186.662,624.831,164.718,610.658,144.691z"/>
	</g>
</g>
</svg>
